<svg width="42" height="42" viewBox="0 0 42 42" fill="none" xmlns="http://www.w3.org/2000/svg">
    <path d="M10.3195 29.7396H3.61102V38.6244H10.3195V29.7396Z" fill="#FFB800"/>
    <path d="M19.676 20.2962H12.9675V38.6244H19.676V20.2962Z" fill="#FFB800"/>
    <path d="M38.389 13.7583H31.6805V38.6244H38.389V13.7583Z" fill="#FFB800"/>
    <path d="M29.0325 24.3198H22.324V38.6252H29.0325V24.3198Z" fill="#FFB800"/>
    <path d="M42 37.394H0V39.8549H42V37.394Z" fill="black"/>
    <path d="M6.09159 20.5419L7.83984 22.274L17.1961 12.8299L15.4479 11.0979L6.09159 20.5419Z" fill="#333333"/>
    <path d="M15.8361 13.094L25.1932 17.1172L26.1653 14.8563L16.8082 10.8331L15.8361 13.094Z" fill="#333333"/>
    <path d="M24.7583 15.1709L26.6002 16.8027L35.9559 6.24211L34.114 4.61032L24.7583 15.1709Z" fill="#333333"/>
    <path d="M6.96527 24.6889C8.77745 24.6889 10.2465 23.2199 10.2465 21.4077C10.2465 19.5955 8.77745 18.1264 6.96527 18.1264C5.15309 18.1264 3.68402 19.5955 3.68402 21.4077C3.68402 23.2199 5.15309 24.6889 6.96527 24.6889Z" fill="#E6E6E6"/>
    <path d="M16.3218 15.2455C18.134 15.2455 19.603 13.7765 19.603 11.9643C19.603 10.1521 18.134 8.68301 16.3218 8.68301C14.5096 8.68301 13.0405 10.1521 13.0405 11.9643C13.0405 13.7765 14.5096 15.2455 16.3218 15.2455Z" fill="#B3B3B3"/>
    <path d="M35.0347 8.70761C36.8469 8.70761 38.316 7.23855 38.316 5.42636C38.316 3.61418 36.8469 2.14511 35.0347 2.14511C33.2225 2.14511 31.7535 3.61418 31.7535 5.42636C31.7535 7.23855 33.2225 8.70761 35.0347 8.70761Z" fill="#4D4D4D"/>
    <path d="M25.6782 19.2683C27.4904 19.2683 28.9595 17.7992 28.9595 15.9871C28.9595 14.1749 27.4904 12.7058 25.6782 12.7058C23.866 12.7058 22.397 14.1749 22.397 15.9871C22.397 17.7992 23.866 19.2683 25.6782 19.2683Z" fill="#808080"/>
</svg>
