<svg fill="none" height="42" viewBox="0 0 42 42" width="42" xmlns="http://www.w3.org/2000/svg"><g fill="#ffb800"><path d="m10.3195 29.7396h-6.70848v8.8848h6.70848z"/><path d="m19.676 20.2962h-6.7085v18.3282h6.7085z"/><path d="m38.389 13.7583h-6.7085v24.8661h6.7085z"/><path d="m29.0325 24.3198h-6.7085v14.3054h6.7085z"/></g><path d="m42 37.394h-42v2.4609h42z" fill="#000"/><path d="m6.09159 20.5419 1.74825 1.7321 9.35626-9.4441-1.7482-1.732z" fill="#333"/><path d="m15.8361 13.094 9.3571 4.0232.9721-2.2609-9.3571-4.0232z" fill="#333"/><path d="m24.7583 15.1709 1.8419 1.6318 9.3557-10.56059-1.8419-1.63179z" fill="#333"/><path d="m6.96527 24.6889c1.81218 0 3.28123-1.469 3.28123-3.2812s-1.46905-3.2813-3.28123-3.2813-3.28125 1.4691-3.28125 3.2813 1.46907 3.2812 3.28125 3.2812z" fill="#e6e6e6"/><path d="m16.3218 15.2455c1.8122 0 3.2812-1.469 3.2812-3.2812s-1.469-3.28129-3.2812-3.28129-3.2813 1.46909-3.2813 3.28129 1.4691 3.2812 3.2813 3.2812z" fill="#b3b3b3"/><path d="m35.0347 8.70761c1.8122 0 3.2813-1.46906 3.2813-3.28125 0-1.81218-1.4691-3.28125-3.2813-3.28125s-3.2812 1.46907-3.2812 3.28125c0 1.81219 1.469 3.28125 3.2812 3.28125z" fill="#4d4d4d"/><path d="m25.6782 19.2683c1.8122 0 3.2813-1.4691 3.2813-3.2812 0-1.8122-1.4691-3.2813-3.2813-3.2813s-3.2812 1.4691-3.2812 3.2813c0 1.8121 1.469 3.2812 3.2812 3.2812z" fill="#808080"/></svg>