<?xml version="1.0" standalone="no"?>
<!DOCTYPE svg PUBLIC "-//W3C//DTD SVG 20010904//EN"
 "http://www.w3.org/TR/2001/REC-SVG-20010904/DTD/svg10.dtd">
<svg version="1.0" xmlns="http://www.w3.org/2000/svg"
 width="700.000000pt" height="700.000000pt" viewBox="0 0 700.000000 700.000000"
 preserveAspectRatio="xMidYMid meet">
<metadata>
Created by potrace 1.11, written by Peter Selinger 2001-2013
</metadata>
<g transform="translate(0.000000,700.000000) scale(0.100000,-0.100000)"
fill="#000000" stroke="none">
<path d="M5725 6633 c-47 -10 -130 -46 -178 -77 -214 -138 -304 -396 -224
-637 l24 -70 -95 -107 c-123 -139 -224 -252 -237 -266 -6 -6 -39 -44 -75 -85
-36 -41 -78 -89 -95 -108 -16 -18 -109 -123 -205 -232 -119 -135 -180 -198
-190 -194 -49 17 -160 28 -219 22 -115 -13 -200 -48 -319 -135 -22 -16 -26
-16 -95 14 -97 42 -151 65 -157 67 -3 1 -23 10 -45 20 -22 9 -107 46 -190 82
-82 35 -151 65 -152 67 -2 2 -6 27 -9 57 -22 215 -153 389 -351 466 -56 22
-88 27 -178 29 -96 3 -119 0 -184 -22 -175 -59 -306 -194 -356 -369 -25 -84
-24 -232 2 -307 l20 -57 -421 -427 -422 -426 -54 17 c-83 25 -211 27 -296 5
-228 -59 -397 -267 -408 -502 -14 -309 231 -568 538 -569 50 0 100 2 111 5
304 71 491 355 429 651 -8 36 -18 74 -23 83 -8 14 67 95 414 445 l423 429 48
-17 c63 -22 213 -28 284 -11 76 18 156 56 216 104 l50 40 40 -18 c21 -10 147
-64 279 -120 332 -141 310 -130 311 -165 1 -53 12 -120 24 -150 70 -175 183
-288 348 -347 73 -27 224 -34 302 -13 195 52 355 213 401 405 21 90 15 213
-14 300 l-26 74 42 46 c23 25 69 76 102 114 33 38 71 81 85 96 14 14 70 77
125 140 55 63 102 117 105 120 3 3 93 104 199 225 107 121 202 228 210 237 15
16 21 16 71 3 82 -22 228 -14 310 17 142 52 248 149 311 283 85 182 70 369
-43 538 -102 153 -261 236 -447 235 -53 -1 -105 -3 -116 -5z"/>
<path d="M5280 2739 l0 -1969 -22 0 c-13 -1 -112 -2 -221 -3 l-197 -2 0 55
c-1 30 -1 521 -1 1091 l0 1036 -560 0 -559 0 0 -1089 0 -1088 -67 -1 c-139 -2
-366 1 -370 5 -2 2 -5 642 -6 1422 l-2 1419 -557 1 -556 1 0 -1419 c0 -781 -3
-1422 -5 -1425 -5 -5 -84 -6 -324 -4 l-113 1 -2 637 -3 637 -545 1 c-300 0
-550 -1 -557 -3 -8 -3 -11 -165 -11 -633 0 -347 -2 -632 -5 -636 -3 -3 -139
-5 -302 -5 l-295 0 2 -206 3 -205 3495 0 3495 0 3 206 2 206 -296 0 c-163 0
-298 2 -301 5 -3 3 -5 889 -5 1969 l0 1965 -559 0 -559 0 0 -1969z"/>
</g>
</svg>
